<?xml version="1.0" standalone="no"?>
<!DOCTYPE svg PUBLIC "-//W3C//DTD SVG 20010904//EN"
 "http://www.w3.org/TR/2001/REC-SVG-20010904/DTD/svg10.dtd">
<svg version="1.0" xmlns="http://www.w3.org/2000/svg"
 width="700.000000pt" height="700.000000pt" viewBox="0 0 700.000000 700.000000"
 preserveAspectRatio="xMidYMid meet">
<metadata>
Created by potrace 1.11, written by Peter Selinger 2001-2013
</metadata>
<g transform="translate(0.000000,700.000000) scale(0.100000,-0.100000)"
fill="#000000" stroke="none">
<path d="M3260 6994 c-657 -60 -1180 -238 -1695 -580 -430 -285 -801 -673
-1068 -1118 -430 -716 -587 -1557 -447 -2391 240 -1424 1373 -2575 2802 -2844
239 -46 353 -55 648 -55 295 0 409 9 648 55 1238 233 2265 1128 2669 2323 78
230 131 470 165 746 17 138 17 600 0 745 -82 685 -331 1286 -753 1815 -102
127 -321 354 -444 460 -527 452 -1143 728 -1835 821 -140 19 -573 33 -690 23z
m407 -2668 c262 -55 472 -217 588 -451 61 -122 85 -230 85 -375 0 -145 -25
-253 -85 -375 -83 -167 -212 -296 -380 -380 -122 -60 -229 -85 -375 -85 -373
0 -677 220 -802 580 -32 92 -33 99 -33 260 0 161 1 167 34 263 101 292 328
496 626 562 82 18 259 18 342 1z m-1168 -983 c35 -218 139 -420 294 -570 307
-296 753 -372 1134 -193 216 101 392 276 489 485 39 86 79 217 88 298 l7 57
1161 0 1161 0 -7 -102 c-62 -929 -464 -1746 -1155 -2342 -892 -771 -2128
-1010 -3252 -628 -1056 359 -1880 1257 -2149 2342 -54 222 -100 540 -100 701
l0 29 1159 0 1158 0 12 -77z"/>
<path d="M3372 4016 c-166 -41 -312 -174 -374 -341 -18 -49 -22 -81 -22 -175
0 -94 4 -126 22 -175 94 -254 362 -401 621 -340 176 42 321 172 383 346 32 92
32 258 -2 344 -52 135 -146 241 -263 298 -116 57 -244 72 -365 43z m280 -188
c72 -33 136 -97 174 -174 26 -53 29 -69 29 -154 0 -84 -3 -102 -28 -152 -37
-76 -104 -143 -175 -176 -49 -23 -70 -27 -152 -27 -82 0 -103 4 -152 27 -73
34 -142 103 -176 176 -23 49 -27 70 -27 152 0 77 4 104 22 143 45 98 116 163
216 199 75 27 193 21 269 -14z"/>
</g>
</svg>
